<svg t="1702278099146" class="icon" viewBox="0 0 1024 1024" version="1.1" xmlns="http://www.w3.org/2000/svg" p-id="2611" width="128" height="128">
<path d="M575.6 752h-415c-52.9 0-96-43.1-96-96V209c0-52.9 43.1-96 96-96h702c52.9 0 96 43.1 96 96v192.4c0 17.7-14.3 32-32 32s-32-14.3-32-32V209c0-17.6-14.4-32-32-32h-702c-17.6 0-32 14.4-32 32v447c0 17.6 14.4 32 32 32h415c17.7 0 32 14.3 32 32s-14.3 32-32 32z" p-id="2612"></path>
<path d="M927.4 699.7c17.7 0 32-14.3 32-32s-14.3-32-32-32h-53.8l59.4-82.5c10.6-14.1 7.7-34.2-6.4-44.8-14.1-10.6-34.2-7.7-44.8 6.4L809 615.1l-72.7-100.3c-10.6-14.1-30.7-17-44.8-6.4-14.1 10.6-17 30.7-6.4 44.8l59.4 82.5h-53.8c-17.7 0-32 14.3-32 32s14.3 32 32 32H777v50.6h-86.3c-17.7 0-32 14.3-32 32s14.3 32 32 32H777V879c0 17.7 14.3 32 32 32s32-14.3 32-32v-64.6h86.3c17.7 0 32-14.3 32-32s-14.3-32-32-32H841v-50.6h86.4zM703.6 369h-448c-17.7 0-32-14.3-32-32s14.3-32 32-32h448c17.7 0 32 14.3 32 32s-14.3 32-32 32zM575.6 561h-320c-17.7 0-32-14.3-32-32s14.3-32 32-32h320c17.7 0 32 14.3 32 32s-14.3 32-32 32z" p-id="2613">
</path>
</svg>